<?xml version="1.0" encoding="utf-8"?>
<!-- Generator: Adobe Illustrator 20.1.0, SVG Export Plug-In . SVG Version: 6.00 Build 0)  -->
<svg version="1.1" id="Слой_1" xmlns="http://www.w3.org/2000/svg" xmlns:xlink="http://www.w3.org/1999/xlink" x="0px" y="0px"
	 viewBox="0 0 182.1 151.6" style="enable-background:new 0 0 182.1 151.6;" xml:space="preserve">
<g>
	<path style="fill:#373737;" d="M95.8,125.7c-22.1,0-40.2-18-40.2-40.2s18-40.2,40.2-40.2s40.2,18,40.2,40.2S117.9,125.7,95.8,125.7
		z M95.8,47.3c-21,0-38.2,17.1-38.2,38.2s17.1,38.2,38.2,38.2s38.2-17.1,38.2-38.2S116.8,47.3,95.8,47.3z"/>
</g>
<g>
	<path style="fill:#373737;" d="M95.8,121.2c-22.1,0-40.2-16-40.2-35.7s18-35.7,40.2-35.7s40.2,16,40.2,35.7S117.9,121.2,95.8,121.2
		z M95.8,51.8c-21,0-38.2,15.1-38.2,33.7s17.1,33.7,38.2,33.7s38.2-15.1,38.2-33.7S116.8,51.8,95.8,51.8z"/>
</g>
<g>
	<path style="fill:#373737;" d="M95.8,117.1c-22.1,0-40.2-14.2-40.2-31.6c0-17.4,18-31.6,40.2-31.6s40.2,14.2,40.2,31.6
		C135.9,102.9,117.9,117.1,95.8,117.1z M95.8,55.9c-21,0-38.2,13.3-38.2,29.6s17.1,29.6,38.2,29.6s38.2-13.3,38.2-29.6
		S116.8,55.9,95.8,55.9z"/>
</g>
<g>
	<path style="fill:#373737;" d="M96.4,47.3h-46c-6.3,0-11.5-5.2-11.5-11.5c0-6.3,5.2-11.5,11.5-11.5h25v2h-25
		c-5.2,0-9.5,4.3-9.5,9.5s4.3,9.5,9.5,9.5h46V47.3z"/>
</g>
<g>
	<path style="fill:#373737;" d="M86.2,31.5h-5.3c-3.1,0-5.7-2.6-5.7-5.7s2.6-5.7,5.7-5.7h5.3v2h-5.3c-2,0-3.7,1.7-3.7,3.7
		s1.7,3.7,3.7,3.7h5.3V31.5z"/>
</g>
<g>
	<polygon style="fill:#373737;" points="99.7,34.4 85.2,34.4 85.2,17.2 100,17.2 100,19.2 87.2,19.2 87.2,32.4 99.7,32.4 	"/>
</g>
<g>
	<path style="fill:#373737;" d="M123.2,35.8h-18.8c-5.5,0-9.9-4.4-9.9-9.9c0-5.5,4.4-9.9,9.9-9.9h18.8V35.8z M104.3,18
		c-4.4,0-7.9,3.6-7.9,7.9s3.6,7.9,7.9,7.9h16.8V18H104.3z"/>
</g>
<g>
	<rect x="111.1" y="16.2" style="fill:#373737;" width="1" height="18.7"/>
</g>
<g>
	<rect x="114.1" y="16.1" style="fill:#373737;" width="1" height="18.7"/>
</g>
<g>
	<rect x="117.2" y="17" style="fill:#373737;" width="1" height="17.8"/>
</g>
<g>
	<path style="fill:#373737;" d="M129.9,33h-8.5V18.9h8.5V33z M123.4,31h4.5V20.9h-4.5V31z"/>
</g>
<g>
	<path style="fill:#373737;" d="M139.8,31h-12.3V20.6h12.3c2.9,0,5.2,2.3,5.2,5.2S142.6,31,139.8,31z M129.5,29h10.3
		c1.8,0,3.2-1.4,3.2-3.2s-1.4-3.2-3.2-3.2h-10.3V29z"/>
</g>
<g>
	<rect x="135" y="22.3" style="fill:#373737;" width="1" height="7.2"/>
</g>
<g>
	<rect x="136.9" y="22.3" style="fill:#373737;" width="1" height="7.6"/>
</g>
<g>
	<path style="fill:#373737;" d="M97.7,125.7c-0.2,0-24.9,0-25.9-0.1c-21.5-0.3-38.7-17.5-39.1-39.3c0-0.3,0-14.1,0-14.2h2
		c0,0.7,0,13.9,0,14.2c0.4,20.7,16.7,37,37.2,37.3c0.9,0,25.7,0.1,25.9,0.1V125.7z"/>
</g>
<g>
	<rect x="33.1" y="67" style="fill:#373737;" width="1" height="5.1"/>
</g>
<g>
	<rect x="32.5" y="66" style="fill:#373737;" width="1.9" height="1"/>
</g>
<g>
	<rect x="32" y="63.9" style="fill:#373737;" width="1" height="3.1"/>
</g>
<g>
	<rect x="34" y="63.9" style="fill:#373737;" width="1" height="3.1"/>
</g>
<g>
	<rect x="33.3" y="73.3" style="fill:#FFFFFF;" width="0.7" height="1.8"/>
</g>
<g>
	<rect x="33.3" y="75.6" style="fill:#FFFFFF;" width="0.7" height="1.8"/>
</g>
<g>
	<rect x="33.3" y="78.1" style="fill:#FFFFFF;" width="0.7" height="1.8"/>
</g>
<g>
</g>
<g>
</g>
<g>
</g>
<g>
</g>
<g>
</g>
<g>
</g>
<g>
</g>
<g>
</g>
<g>
</g>
<g>
</g>
<g>
</g>
<g>
</g>
<g>
</g>
<g>
</g>
<g>
</g>
</svg>
