<?xml version="1.0" encoding="utf-8"?>
<!-- Generator: Adobe Illustrator 20.1.0, SVG Export Plug-In . SVG Version: 6.00 Build 0)  -->
<svg version="1.1" id="Слой_1" xmlns="http://www.w3.org/2000/svg" xmlns:xlink="http://www.w3.org/1999/xlink" x="0px" y="0px"
	 viewBox="0 0 131.1 144.1" style="enable-background:new 0 0 131.1 144.1;" xml:space="preserve">
<path style="fill:none;stroke:#373737;stroke-width:3;stroke-miterlimit:10;" d="M95.1,128.5h-73c-3.3,0-6-2.7-6-6V25.5
	c0-3.3,2.7-6,6-6h73c3.3,0,6,2.7,6,6v96.9C101.1,125.8,98.4,128.5,95.1,128.5z"/>
<rect x="29.9" y="33.6" style="fill:none;stroke:#373737;stroke-width:3;stroke-miterlimit:10;" width="57.2" height="16.8"/>
<rect x="29.4" y="72.7" style="fill:none;stroke:#373737;stroke-width:3;stroke-miterlimit:10;" width="57.7" height="40.2"/>
<line style="fill:none;stroke:#373737;stroke-width:3;stroke-miterlimit:10;" x1="29.4" y1="100.1" x2="73.5" y2="100.1"/>
<line style="fill:none;stroke:#373737;stroke-width:3;stroke-miterlimit:10;" x1="29.4" y1="86.2" x2="87" y2="86.2"/>
<line style="fill:none;stroke:#373737;stroke-width:3;stroke-miterlimit:10;" x1="43.9" y1="72.7" x2="43.9" y2="112.9"/>
<line style="fill:none;stroke:#373737;stroke-width:3;stroke-miterlimit:10;" x1="58.6" y1="72.7" x2="58.6" y2="112.9"/>
<line style="fill:none;stroke:#373737;stroke-width:3;stroke-miterlimit:10;" x1="72.7" y1="112.9" x2="72.7" y2="72.7"/>
<line style="fill:none;stroke:#373737;stroke-width:3;stroke-miterlimit:10;" x1="29.4" y1="61.1" x2="47.5" y2="61.1"/>
<line style="fill:none;stroke:#373737;stroke-width:3;stroke-miterlimit:10;" x1="51.5" y1="61.1" x2="68.5" y2="61.1"/>
<line style="fill:none;stroke:#373737;stroke-width:3;stroke-miterlimit:10;" x1="72" y1="61.1" x2="88.2" y2="61.1"/>
<line style="fill:none;stroke:#373737;stroke-miterlimit:10;" x1="75.9" y1="98.3" x2="83.7" y2="98.3"/>
<line style="fill:none;stroke:#373737;stroke-miterlimit:10;" x1="75.9" y1="102.2" x2="83.7" y2="102.2"/>
<g>
</g>
<g>
</g>
<g>
</g>
<g>
</g>
<g>
</g>
<g>
</g>
<g>
</g>
<g>
</g>
<g>
</g>
<g>
</g>
<g>
</g>
<g>
</g>
<g>
</g>
<g>
</g>
<g>
</g>
</svg>
