<svg xmlns="http://www.w3.org/2000/svg" viewBox="0 0 196.5 46"><path d="M25.8 31H15.4V12.1c0-1.3-1-2.3-2.3-2.3-1.3 0-2.3 1-2.3 2.3v21.2c0 1.3 1 2.3 2.3 2.3h12.7c1.3 0 2.3-1 2.3-2.3 0-1.3-1-2.3-2.3-2.3zM46.6 28.8c-.8 1.9-2.6 3.1-4.8 3.1-2.9 0-5-2.4-5-5.3s2.1-5.3 5-5.3c2.1 0 4 1.3 4.8 3.1.3.6.4 1.4.4 2.1.1.9-.1 1.6-.4 2.3zm2.3-11.5c-1.1 0-2 .7-2.2 1.7-1.5-1.1-3.3-1.7-5.3-1.7-5 0-8.9 4.2-8.9 9.4s3.8 9.4 8.9 9.4c2 0 3.8-.6 5.3-1.7.2 1 1.1 1.7 2.2 1.7 1.3 0 2.3-1 2.3-2.3V19.5c0-1.2-1.1-2.2-2.3-2.2zM104.3 31.8c-2.1 0-4-1.3-4.8-3.2-.3-.6-.4-1.4-.4-2.1 0-.8.2-1.5.4-2.1.8-1.9 2.6-3.1 4.8-3.1 2.9 0 5 2.4 5 5.3s-2.1 5.2-5 5.2zm.4-14.6c-2 0-3.8.6-5.3 1.7-.2-1-1.1-1.7-2.2-1.7-1.3 0-2.3 1-2.3 2.3v22.2c0 1.3 1 2.3 2.3 2.3 1.3 0 2.3-1 2.3-2.3v-7.2c1.5 1.1 3.3 1.7 5.2 1.7 5 0 8.9-4.2 8.9-9.4 0-5.4-3.8-9.6-8.9-9.6zM134.8 17.2c-1 0-1.8.6-2.1 1.5L128 30.9s-.2.5-.4 0-5.3-12.3-5.3-12.3c-.3-.8-1.1-1.4-2.1-1.4-1.3 0-2.3 1-2.3 2.3 0 .3.1.6.2.9l5.6 13c.3.8 1.1 1.4 2.1 1.4.3 0 .5-.1.8-.1l-2.4 6.2c-.1.3-.2.5-.2.8 0 1.3 1 2.3 2.3 2.3 1 0 1.8-.6 2.1-1.5l8.4-22.2c.1-.3.2-.5.2-.8 0-1.3-1-2.3-2.2-2.3zM148.5 17.2c-6.8.6-7.6 6.1-7.6 9.3v7.1c0 1.3 1 2.3 2.3 2.3 1.3 0 2.3-1 2.3-2.3v-8.7c0-2 1.6-3.4 3.3-3.4 1.7 0 2.4.5 3.7.9 1.3.5 2.3-1.1 2.3-2.1-.1-1.5-3-3.5-6.3-3.1zM163 17.4c-1.3 0-2.3 1-2.3 2.3v13.9c0 1.3 1 2.3 2.3 2.3 1.3 0 2.3-1 2.3-2.3V19.7c0-1.2-1-2.3-2.3-2.3zM163.1 15.5c1.6 0 2.8-1.3 2.8-2.8 0-1.6-1.3-2.8-2.8-2.8-1.6 0-2.8 1.3-2.8 2.8 0 1.5 1.2 2.8 2.8 2.8zM79.9 17.2c-3.2 0-5.2 1.4-6.7 3-1.4-1.7-3.4-3-6.5-3-1.2 0-8.7 0-9 9.2v7.4c0 1.3 1 2.3 2.3 2.3 1.3 0 2.3-1 2.3-2.3v-7.7c0-.2 0-4.5 4.4-4.5 4.2 0 4.2 4.3 4.2 4.3v8c0 1.3 1 2.3 2.3 2.3 1.3 0 2.3-1 2.3-2.3v-8s-.2-4.3 4.7-4.3c3.4 0 3.9 3.7 3.9 4.3v8c0 1.3 1 2.3 2.3 2.3 1.3 0 2.3-1 2.3-2.3v-7.4c-.2-.5-.2-9.3-8.8-9.3zM179.3 24.6c-1.4-.4-3.3-.8-3.3-2 0-1.6 3.2-1.4 3.2-1.4 1.9.1 3.7 1.2 3.7 1.2.7.4 2.3 1.1 3.1-.5.7-1.2-.2-2.3-.6-2.6 0 0-2.4-2-6.3-2-4.5.1-7.2 2.1-7.3 5.6-.2 4.5 6.7 5.6 6.7 5.6 1.8.4 3.9.8 3.9 2.1-.1 1.2-1.6 1.5-3.2 1.5-3.4 0-5.1-3.1-6.9-1.4-.9.9-.5 2.1-.1 2.6 1.2 1.4 2.7 2.7 6.5 2.7 5 0 8-2.2 8.1-5.9 0-4.3-6.2-5.1-7.5-5.5z" fill-rule="evenodd" clip-rule="evenodd" fill="#005c9b"/></svg>