<?xml version="1.0" encoding="utf-8"?>
<!-- Generator: Adobe Illustrator 20.1.0, SVG Export Plug-In . SVG Version: 6.00 Build 0)  -->
<svg version="1.1" id="Слой_1" xmlns="http://www.w3.org/2000/svg" xmlns:xlink="http://www.w3.org/1999/xlink" x="0px" y="0px"
	 viewBox="0 0 182.1 151.6" style="enable-background:new 0 0 182.1 151.6;" xml:space="preserve">
<g>
	<g>
		<g>
			<rect x="60.1" y="123.3" width="63.5" height="3"/>
		</g>
	</g>
</g>
<g>
	<g>
		<g>
			
				<rect x="51.1" y="104.4" transform="matrix(0.7071 -0.7071 0.7071 0.7071 -67.073 71.3304)" style="fill:#373737;" width="3" height="24.4"/>
		</g>
	</g>
</g>
<g>
	<g>
		<g>
			<path style="fill:none;stroke:#000000;stroke-width:3;stroke-miterlimit:10;" d="M122.6,125.2"/>
		</g>
	</g>
</g>
<g>
	<g>
		<g>
			<path style="fill:none;stroke:#000000;stroke-width:3;stroke-miterlimit:10;" d="M122.6,125.2"/>
		</g>
	</g>
</g>
<g>
	<g>
		<g>
			<rect x="42.9" y="97.1" style="fill:#373737;" width="3" height="12"/>
		</g>
	</g>
</g>
<g>
	<g>
		<g>
			<rect x="60.4" y="123.3" style="fill:#373737;" width="63.5" height="3"/>
		</g>
	</g>
</g>
<g>
	<g>
		<g>
			
				<rect x="119.3" y="115.1" transform="matrix(0.7071 -0.7071 0.7071 0.7071 -43.9603 127.1293)" style="fill:#373737;" width="24.4" height="3"/>
		</g>
	</g>
</g>
<g>
	<g>
		<g>
			<path style="fill:none;stroke:#000000;stroke-width:3;stroke-miterlimit:10;" d="M61.5,125.2"/>
		</g>
	</g>
</g>
<g>
	<g>
		<g>
			<path style="fill:none;stroke:#000000;stroke-width:3;stroke-miterlimit:10;" d="M61.4,125.2"/>
		</g>
	</g>
</g>
<g>
	<g>
		<g>
			<rect x="138.2" y="97.1" style="fill:#373737;" width="3" height="12"/>
		</g>
	</g>
</g>
<g>
	<g>
		<g>
			<rect x="27.4" y="96.9" width="18.5" height="3"/>
		</g>
	</g>
</g>
<g>
	<g>
		<g>
			<rect x="27.4" y="45.6" width="18.5" height="3"/>
		</g>
	</g>
</g>
<g>
	<g>
		<g>
			<rect x="26.4" y="45.6" width="3" height="54.4"/>
		</g>
	</g>
</g>
<g>
	<g>
		<g>
			<rect x="60.1" y="19.2" width="63.5" height="3"/>
		</g>
	</g>
</g>
<g>
	<g>
		<g>
			
				<rect x="40.4" y="27.3" transform="matrix(0.7071 -0.7071 0.7071 0.7071 -5.0029 45.6201)" style="fill:#373737;" width="24.4" height="3"/>
		</g>
	</g>
</g>
<g>
	<g>
		<g>
			<path style="fill:none;stroke:#000000;stroke-width:3;stroke-miterlimit:10;" d="M122.6,20.2"/>
		</g>
	</g>
</g>
<g>
	<g>
		<g>
			<path style="fill:none;stroke:#000000;stroke-width:3;stroke-miterlimit:10;" d="M122.6,20.2"/>
		</g>
	</g>
</g>
<g>
	<g>
		<g>
			<rect x="42.9" y="36.4" style="fill:#373737;" width="3" height="12"/>
		</g>
	</g>
</g>
<g>
	<g>
		<g>
			<rect x="60.4" y="19.2" style="fill:#373737;" width="63.5" height="3"/>
		</g>
	</g>
</g>
<g>
	<g>
		<g>
			
				<rect x="130" y="16.7" transform="matrix(0.7071 -0.7071 0.7071 0.7071 18.1098 101.4191)" style="fill:#373737;" width="3" height="24.4"/>
		</g>
	</g>
</g>
<g>
	<g>
		<g>
			<path style="fill:none;stroke:#000000;stroke-width:3;stroke-miterlimit:10;" d="M61.5,20.2"/>
		</g>
	</g>
</g>
<g>
	<g>
		<g>
			<path style="fill:none;stroke:#000000;stroke-width:3;stroke-miterlimit:10;" d="M61.4,20.2"/>
		</g>
	</g>
</g>
<g>
	<g>
		<g>
			<rect x="138.2" y="36.4" style="fill:#373737;" width="3" height="12"/>
		</g>
	</g>
</g>
<g>
	<g>
		<g>
			<rect x="27.4" y="45.5" style="fill:#373737;" width="18.5" height="3"/>
		</g>
	</g>
</g>
<g>
	<g>
		<g>
			<rect x="27.4" y="96.9" style="fill:#373737;" width="18.5" height="3"/>
		</g>
	</g>
</g>
<g>
	<g>
		<g>
			<rect x="26.4" y="45.5" style="fill:#373737;" width="3" height="54.4"/>
		</g>
	</g>
</g>
<g>
	<g>
		<g>
			<rect x="138.1" y="96.9" width="18.5" height="3"/>
		</g>
	</g>
</g>
<g>
	<g>
		<g>
			<rect x="138.1" y="45.6" width="18.5" height="3"/>
		</g>
	</g>
</g>
<g>
	<g>
		<g>
			<rect x="154.6" y="45.6" width="3" height="54.4"/>
		</g>
	</g>
</g>
<g>
	<g>
		<g>
			<rect x="138.1" y="45.5" style="fill:#373737;" width="18.5" height="3"/>
		</g>
	</g>
</g>
<g>
	<g>
		<g>
			<rect x="138.1" y="96.9" style="fill:#373737;" width="18.5" height="3"/>
		</g>
	</g>
</g>
<g>
	<g>
		<g>
			<rect x="154.6" y="45.5" style="fill:#373737;" width="3" height="54.4"/>
		</g>
	</g>
</g>
<g>
	<g>
		<g>
			<rect x="43.9" y="47" style="fill:#373737;" width="2" height="51.9"/>
		</g>
	</g>
</g>
<g>
	<g>
		<g>
			<rect x="138" y="47.2" style="fill:#373737;" width="2" height="52.9"/>
		</g>
	</g>
</g>
<g>
	<g>
		<g>
			<rect x="44.4" y="97" style="fill:#373737;" width="96" height="2"/>
		</g>
	</g>
</g>
<g>
	<g>
		<g>
			<rect x="44.3" y="46.4" style="fill:#373737;" width="95.3" height="2"/>
		</g>
	</g>
</g>
<g>
	<g>
		<g>
			<path style="fill:#373737;" d="M76.3,56.8h-23v-4.8h23V56.8z M54.3,55.8h21v-2.8h-21V55.8z"/>
		</g>
	</g>
</g>
<g>
	<g>
		<g>
			<path style="fill:#373737;" d="M76.3,73.9h-23v-4.8h23V73.9z M54.3,72.9h21v-2.8h-21V72.9z"/>
		</g>
	</g>
</g>
<g>
	<g>
		<g>
			<path style="fill:#373737;" d="M76.3,90.8h-23v-4.8h23V90.8z M54.3,89.8h21v-2.8h-21V89.8z"/>
		</g>
	</g>
</g>
<g>
	<g>
		<g>
			<path style="fill:#373737;" d="M65.3,84.3c-2.2,0-3.9-1.8-3.9-3.9s1.8-3.9,3.9-3.9s3.9,1.8,3.9,3.9S67.5,84.3,65.3,84.3z
				 M65.3,77.4c-1.6,0-2.9,1.3-2.9,2.9s1.3,2.9,2.9,2.9s2.9-1.3,2.9-2.9S66.9,77.4,65.3,77.4z"/>
		</g>
	</g>
</g>
<g>
	<g>
		<g>
			<path style="fill:#373737;" d="M65.3,66.9c-2.2,0-3.9-1.8-3.9-3.9s1.8-3.9,3.9-3.9s3.9,1.8,3.9,3.9S67.5,66.9,65.3,66.9z
				 M65.3,60.1c-1.6,0-2.9,1.3-2.9,2.9s1.3,2.9,2.9,2.9s2.9-1.3,2.9-2.9S66.9,60.1,65.3,60.1z"/>
		</g>
	</g>
</g>
<g>
	<g>
		<g>
			<path style="fill:#373737;" d="M131,56.8h-23v-4.8h23V56.8z M109,55.8h21v-2.8h-21V55.8z"/>
		</g>
	</g>
</g>
<g>
	<g>
		<g>
			<path style="fill:#373737;" d="M131,73.9h-23v-4.8h23V73.9z M109,72.9h21v-2.8h-21V72.9z"/>
		</g>
	</g>
</g>
<g>
	<g>
		<g>
			<path style="fill:#373737;" d="M131,90.8h-23v-4.8h23V90.8z M109,89.8h21v-2.8h-21V89.8z"/>
		</g>
	</g>
</g>
<g>
	<g>
		<g>
			<path style="fill:#373737;" d="M120.1,84.3c-2.2,0-3.9-1.8-3.9-3.9s1.8-3.9,3.9-3.9s3.9,1.8,3.9,3.9S122.2,84.3,120.1,84.3z
				 M120.1,77.4c-1.6,0-2.9,1.3-2.9,2.9s1.3,2.9,2.9,2.9s2.9-1.3,2.9-2.9S121.7,77.4,120.1,77.4z"/>
		</g>
	</g>
</g>
<g>
	<g>
		<g>
			<path style="fill:#373737;" d="M120.1,66.9c-2.2,0-3.9-1.8-3.9-3.9s1.8-3.9,3.9-3.9s3.9,1.8,3.9,3.9S122.2,66.9,120.1,66.9z
				 M120.1,60.1c-1.6,0-2.9,1.3-2.9,2.9s1.3,2.9,2.9,2.9s2.9-1.3,2.9-2.9S121.7,60.1,120.1,60.1z"/>
		</g>
	</g>
</g>
<g>
	<g>
		<g>
			<g>
				<path style="fill:#373737;" d="M94.4,59c0,0,0.2,0.3,0.2,0.4c0,0.2-0.2,0.6-0.2,0.6h6.6v8H83v-8h4.1c0,0,0-0.4,0-0.6
					c0-0.2,0-0.4,0-0.4H82v10h20V59H94.4z"/>
			</g>
		</g>
	</g>
</g>
<g>
	<g>
		<g>
			<g>
				<path style="fill:#373737;" d="M95,59.4c-0.2-2.1-2-3.7-4.1-3.7c-2.1,0-3.9,1.6-4.1,3.7c0,0.1,0,0.1,0,0.2c0,0.2,0,0.4,0,0.4h1
					c0,0,0-0.2,0-0.4c0-0.2,0-0.2,0-0.3c0.2-1.5,1.5-2.6,3.1-2.6s2.9,1.2,3.1,2.7c0,0.1,0,0.1,0,0.3c0,0.2,0,0.4,0,0.4h1
					c0,0,0-0.2,0-0.4C95,59.5,95,59.5,95,59.4z"/>
			</g>
		</g>
	</g>
</g>
<g>
	<g>
		<g>
			<g>
				<path style="fill:#373737;" d="M91,84c0,0-0.2-0.3-0.2-0.4c0-0.2,0.2-0.6,0.2-0.6h-3v-8h18v8h-7.7c0,0,0,0.4,0,0.6
					c0,0.2,0,0.4,0,0.4h8.7V74H87v10H91z"/>
			</g>
		</g>
	</g>
</g>
<g>
	<g>
		<g>
			<g>
				<path style="fill:#373737;" d="M90.4,83.7c0.2,2.1,2,3.7,4.1,3.7c2.1,0,3.9-1.6,4.1-3.7c0-0.1,0-0.2,0-0.3c0-0.2,0-0.4,0-0.4h-1
					c0,0,0,0.2,0,0.4c0,0.2,0,0.2,0,0.4c-0.2,1.5-1.5,2.6-3.1,2.6s-2.9-1.2-3.1-2.7c0-0.1,0-0.2,0-0.3c0-0.2,0-0.4,0-0.4h-1
					c0,0,0,0.2,0,0.4C90.4,83.6,90.4,83.6,90.4,83.7z"/>
			</g>
		</g>
	</g>
</g>
<g>
	<g>
		<g>
			<path style="fill:#373737;" d="M148.2,75.2c-2.2,0-3.9-1.8-3.9-3.9s1.8-3.9,3.9-3.9s3.9,1.8,3.9,3.9S150.3,75.2,148.2,75.2z
				 M148.2,68.3c-1.6,0-2.9,1.3-2.9,2.9s1.3,2.9,2.9,2.9s2.9-1.3,2.9-2.9S149.8,68.3,148.2,68.3z"/>
		</g>
	</g>
</g>
<g>
	<g>
		<g>
			<path style="fill:#373737;" d="M36.6,75.2c-2.2,0-3.9-1.8-3.9-3.9s1.8-3.9,3.9-3.9s3.9,1.8,3.9,3.9S38.8,75.2,36.6,75.2z
				 M36.6,68.3c-1.6,0-2.9,1.3-2.9,2.9s1.3,2.9,2.9,2.9s2.9-1.3,2.9-2.9S38.3,68.3,36.6,68.3z"/>
		</g>
	</g>
</g>
<g>
	<g>
		<g>
			<circle style="fill:#373737;" cx="37" cy="55.2" r="1.5"/>
		</g>
	</g>
</g>
<g>
	<g>
		<g>
			<circle style="fill:#373737;" cx="37" cy="88.9" r="1.5"/>
		</g>
	</g>
</g>
<g>
	<g>
		<g>
			<circle style="fill:#373737;" cx="148.2" cy="55.2" r="1.5"/>
		</g>
	</g>
</g>
<g>
	<g>
		<g>
			<circle style="fill:#373737;" cx="132" cy="39.5" r="1.5"/>
		</g>
	</g>
</g>
<g>
	<g>
		<g>
			<circle style="fill:#373737;" cx="120.1" cy="26.7" r="1.5"/>
		</g>
	</g>
</g>
<g>
	<g>
		<g>
			<circle style="fill:#373737;" cx="53" cy="39.5" r="1.5"/>
		</g>
	</g>
</g>
<g>
	<g>
		<g>
			<circle style="fill:#373737;" cx="64.9" cy="26.7" r="1.5"/>
		</g>
	</g>
</g>
<g>
	<g>
		<g>
			<circle style="fill:#373737;" cx="132" cy="105.1" r="1.5"/>
		</g>
	</g>
</g>
<g>
	<g>
		<g>
			<circle style="fill:#373737;" cx="120.1" cy="117.9" r="1.5"/>
		</g>
	</g>
</g>
<g>
	<g>
		<g>
			<circle style="fill:#373737;" cx="53" cy="105.1" r="1.5"/>
		</g>
	</g>
</g>
<g>
	<g>
		<g>
			<circle style="fill:#373737;" cx="64.9" cy="117.9" r="1.5"/>
		</g>
	</g>
</g>
<g>
	<g>
		<g>
			<circle style="fill:#373737;" cx="148.2" cy="88.9" r="1.5"/>
		</g>
	</g>
</g>
<g>
	<g>
		<g>
			<path style="fill:#373737;" d="M90.1,40.5h-21v-3c0-1,0.8-1.8,1.8-1.8h17.5c1,0,1.8,0.8,1.8,1.8V40.5z M70.1,39.5h19v-2
				c0-0.4-0.3-0.8-0.8-0.8H70.8c-0.4,0-0.8,0.3-0.8,0.8V39.5z"/>
		</g>
	</g>
</g>
<g>
	<g>
		<g>
			<path style="fill:#373737;" d="M116.1,40.5h-21v-3c0-1,0.8-1.8,1.8-1.8h17.5c1,0,1.8,0.8,1.8,1.8V40.5z M96.1,39.5h19v-2
				c0-0.4-0.3-0.8-0.8-0.8H96.8c-0.4,0-0.8,0.3-0.8,0.8V39.5z"/>
		</g>
	</g>
</g>
<g>
	<g>
		<g>
			<path style="fill:#373737;" d="M116.1,34.1h-21v-3c0-1,0.8-1.8,1.8-1.8h17.5c1,0,1.8,0.8,1.8,1.8V34.1z M96.1,33.1h19v-2
				c0-0.4-0.3-0.8-0.8-0.8H96.8c-0.4,0-0.8,0.3-0.8,0.8V33.1z"/>
		</g>
	</g>
</g>
<g>
	<g>
		<g>
			<path style="fill:#373737;" d="M90.1,34.1h-21v-3c0-1,0.8-1.8,1.8-1.8h17.5c1,0,1.8,0.8,1.8,1.8V34.1z M70.1,33.1h19v-2
				c0-0.4-0.3-0.8-0.8-0.8H70.8c-0.4,0-0.8,0.3-0.8,0.8V33.1z"/>
		</g>
	</g>
</g>
<g>
	<g>
		<g>
			<path style="fill:#373737;" d="M114.3,107.7H96.8c-1,0-1.8-0.8-1.8-1.8v-3h21v3C116.1,106.9,115.3,107.7,114.3,107.7z M96.1,104
				v2c0,0.4,0.3,0.8,0.8,0.8h17.5c0.4,0,0.8-0.3,0.8-0.8v-2H96.1z"/>
		</g>
	</g>
</g>
<g>
	<g>
		<g>
			<path style="fill:#373737;" d="M88.3,107.7H70.8c-1,0-1.8-0.8-1.8-1.8v-3h21v3C90.1,106.9,89.3,107.7,88.3,107.7z M70.1,104v2
				c0,0.4,0.3,0.8,0.8,0.8h17.5c0.4,0,0.8-0.3,0.8-0.8v-2H70.1z"/>
		</g>
	</g>
</g>
<g>
	<g>
		<g>
			<path style="fill:#373737;" d="M88.3,114.1H70.8c-1,0-1.8-0.8-1.8-1.8v-3h21v3C90.1,113.3,89.3,114.1,88.3,114.1z M70.1,110.4v2
				c0,0.4,0.3,0.8,0.8,0.8h17.5c0.4,0,0.8-0.3,0.8-0.8v-2H70.1z"/>
		</g>
	</g>
</g>
<g>
	<g>
		<g>
			<path style="fill:#373737;" d="M114.3,114.1H96.8c-1,0-1.8-0.8-1.8-1.8v-3h21v3C116.1,113.3,115.3,114.1,114.3,114.1z
				 M96.1,110.4v2c0,0.4,0.3,0.8,0.8,0.8h17.5c0.4,0,0.8-0.3,0.8-0.8v-2H96.1z"/>
		</g>
	</g>
</g>
<g>
</g>
<g>
</g>
<g>
</g>
<g>
</g>
<g>
</g>
<g>
</g>
<g>
</g>
<g>
</g>
<g>
</g>
<g>
</g>
<g>
</g>
<g>
</g>
<g>
</g>
<g>
</g>
<g>
</g>
</svg>
