<svg xmlns="http://www.w3.org/2000/svg" viewBox="0 0 115.3 114.5"><path d="M24.6 98.7c-6.6 0-12-5.4-12-12V25.4c0-6.6 5.4-12 12-12h64.7c6.6 0 12 5.4 12 12h-2c0-5.5-4.5-10-10-10H24.6c-5.5 0-10 4.5-10 10v61.3c0 5.5 4.5 10 10 10v2z" fill="#373737"/><path d="M107.3 112.7H28.6c-3 0-5.5-2.5-5.5-5.5v-79c0-3 2.5-5.5 5.5-5.5h78.7c3 0 5.5 2.5 5.5 5.5v79c0 3-2.5 5.5-5.5 5.5zm-78.7-87c-1.4 0-2.5 1.1-2.5 2.5v79c0 1.4 1.1 2.5 2.5 2.5h78.7c1.4 0 2.5-1.1 2.5-2.5v-79c0-1.4-1.1-2.5-2.5-2.5H28.6zM24.6 14.6h-2c0-5.5 4.4-9.9 9.9-9.9h37.6v2H32.6c-4.4 0-8 3.5-8 7.9zM9.1 70.6h-2V28.8c0-2.5 2.1-4.6 4.6-4.6h2v2h-2c-1.4 0-2.6 1.2-2.6 2.6v41.8z" fill="#373737"/><path fill="#373737" d="M1.8 36.5h6.4v2H1.8zM.8 48.1h7.3v2H.8zM.8 59.4h7.3v2H.8zM1.8 69.6h7.3v2H1.8zM1.2 82.5h6.9v2H1.2zM1.2 93.3h6.9v2H1.2zM37.7 1.1h2v4.6h-2zM48.9 1.1h2v5.5h-2zM60.7 1.1h2v4.6h-2z"/><circle cx="42.3" cy="42.2" r="1.6" fill="#373737"/><ellipse transform="rotate(-87.43 49.093 42.224)" cx="49.1" cy="42.2" rx="1.6" ry="1.6" fill="#373737"/><ellipse transform="rotate(-87.43 55.976 42.224)" cx="56" cy="42.2" rx="1.6" ry="1.6" fill="#373737"/><ellipse transform="rotate(-87.43 62.928 42.224)" cx="62.9" cy="42.2" rx="1.6" ry="1.6" fill="#373737"/><ellipse transform="rotate(-87.43 69.74 42.224)" cx="69.7" cy="42.2" rx="1.6" ry="1.6" fill="#373737"/><circle cx="42.3" cy="49.3" r="1.6" fill="#373737"/><ellipse transform="rotate(-87.43 49.093 49.287)" cx="49.1" cy="49.3" rx="1.6" ry="1.6" fill="#373737"/><ellipse transform="rotate(-87.43 55.976 49.287)" cx="56" cy="49.3" rx="1.6" ry="1.6" fill="#373737"/><ellipse transform="rotate(-87.43 62.928 49.287)" cx="62.9" cy="49.3" rx="1.6" ry="1.6" fill="#373737"/><ellipse transform="rotate(-87.43 69.74 49.287)" cx="69.7" cy="49.3" rx="1.6" ry="1.6" fill="#373737"/><circle cx="42.3" cy="61.2" r="1.6" fill="#373737"/><ellipse transform="rotate(-87.43 49.093 61.224)" cx="49.1" cy="61.2" rx="1.6" ry="1.6" fill="#373737"/><ellipse transform="rotate(-87.43 55.976 61.224)" cx="56" cy="61.2" rx="1.6" ry="1.6" fill="#373737"/><ellipse transform="rotate(-87.43 62.928 61.224)" cx="62.9" cy="61.2" rx="1.6" ry="1.6" fill="#373737"/><ellipse transform="rotate(-87.43 69.74 61.224)" cx="69.7" cy="61.2" rx="1.6" ry="1.6" fill="#373737"/><circle cx="42.3" cy="68.3" r="1.6" fill="#373737"/><ellipse transform="rotate(-87.43 49.093 68.286)" cx="49.1" cy="68.3" rx="1.6" ry="1.6" fill="#373737"/><ellipse transform="rotate(-87.43 55.976 68.286)" cx="56" cy="68.3" rx="1.6" ry="1.6" fill="#373737"/><ellipse transform="rotate(-87.43 62.928 68.286)" cx="62.9" cy="68.3" rx="1.6" ry="1.6" fill="#373737"/><ellipse transform="rotate(-87.43 69.74 68.286)" cx="69.7" cy="68.3" rx="1.6" ry="1.6" fill="#373737"/><path fill="#373737" d="M48.6 49.3h1v12.2h-1zM55.5 49.3h1v11.9h-1z"/><path fill="#373737" d="M42.3 48.8h6.8v1h-6.8zM49.1 41.7h7.4v1h-7.4zM62.4 24.7h1v17.5h-1zM41.8 24.7h1v17.5h-1zM69.2 49.3h1v12.2h-1zM25.2 60.7h17.1v1H25.2z"/></svg>