<?xml version="1.0" encoding="utf-8"?>
<!-- Generator: Adobe Illustrator 20.1.0, SVG Export Plug-In . SVG Version: 6.00 Build 0)  -->
<svg version="1.1" id="Слой_1" xmlns="http://www.w3.org/2000/svg" xmlns:xlink="http://www.w3.org/1999/xlink" x="0px" y="0px"
	 viewBox="0 0 182.1 151.6" style="enable-background:new 0 0 182.1 151.6;" xml:space="preserve">
<g>
	<g>
		<g>
			<g>
				<path style="fill:#373737;" d="M125.5,119H60.8c-6.6,0-12-5.4-12-12V45.7c0-6.6,5.4-12,12-12h64.7c6.6,0,12,5.4,12,12V107
					C137.5,113.6,132.1,119,125.5,119z M60.8,35.7c-5.5,0-10,4.5-10,10V107c0,5.5,4.5,10,10,10h64.7c5.5,0,10-4.5,10-10V45.7
					c0-5.5-4.5-10-10-10H60.8z"/>
			</g>
		</g>
	</g>
</g>
<g>
	<g>
		<g>
			<g>
				<path style="fill:#FFFFFF;" d="M143.5,131.4H64.8c-2.2,0-4-1.8-4-4v-79c0-2.2,1.8-4,4-4h78.7c2.2,0,4,1.8,4,4v79
					C147.5,129.6,145.7,131.4,143.5,131.4z"/>
			</g>
		</g>
	</g>
	<g>
		<g>
			<g>
				<path style="fill:#373737;" d="M143.5,132.9H64.8c-3,0-5.5-2.5-5.5-5.5v-79c0-3,2.5-5.5,5.5-5.5h78.7c3,0,5.5,2.5,5.5,5.5v79
					C149,130.5,146.5,132.9,143.5,132.9z M64.8,46c-1.4,0-2.5,1.1-2.5,2.5v79c0,1.4,1.1,2.5,2.5,2.5h78.7c1.4,0,2.5-1.1,2.5-2.5v-79
					c0-1.4-1.1-2.5-2.5-2.5H64.8z"/>
			</g>
		</g>
	</g>
</g>
<g>
	<g>
		<g>
			<g>
				<path style="fill:none;stroke:#373737;stroke-width:2;stroke-miterlimit:10;" d="M108.2,34.9"/>
			</g>
		</g>
	</g>
</g>
<g>
	<g>
		<g>
			<g>
				<path style="fill:#373737;" d="M60.8,34.9h-2c0-5.5,4.4-9.9,9.9-9.9h37.6v2H68.8C64.4,27,60.8,30.5,60.8,34.9z"/>
			</g>
		</g>
	</g>
</g>
<g>
	<g>
		<g>
			<g>
				<path style="fill:#373737;" d="M45.3,90.9h-2V49c0-2.5,2.1-4.6,4.6-4.6h2v2h-2c-1.4,0-2.6,1.2-2.6,2.6V90.9z"/>
			</g>
		</g>
	</g>
</g>
<g>
	<g>
		<g>
			<g>
				<rect x="37.9" y="56.8" style="fill:#373737;" width="6.4" height="2"/>
			</g>
		</g>
	</g>
</g>
<g>
	<g>
		<g>
			<g>
				<rect x="37" y="68.3" style="fill:#373737;" width="7.3" height="2"/>
			</g>
		</g>
	</g>
</g>
<g>
	<g>
		<g>
			<g>
				<rect x="37" y="79.7" style="fill:#373737;" width="7.3" height="2"/>
			</g>
		</g>
	</g>
</g>
<g>
	<g>
		<g>
			<g>
				<rect x="38" y="89.9" style="fill:#373737;" width="7.3" height="2"/>
			</g>
		</g>
	</g>
</g>
<g>
	<g>
		<g>
			<g>
				<rect x="37.4" y="102.8" style="fill:#373737;" width="6.9" height="2"/>
			</g>
		</g>
	</g>
</g>
<g>
	<g>
		<g>
			<g>
				<rect x="37.4" y="113.5" style="fill:#373737;" width="6.9" height="2"/>
			</g>
		</g>
	</g>
</g>
<g>
	<g>
		<g>
			<g>
				<path style="fill:none;stroke:#373737;stroke-width:2;stroke-miterlimit:10;" d="M38,114.5"/>
			</g>
		</g>
	</g>
</g>
<g>
	<g>
		<g>
			<g>
				<path style="fill:none;stroke:#373737;stroke-width:2;stroke-miterlimit:10;" d="M44.3,114.5"/>
			</g>
		</g>
	</g>
</g>
<g>
	<g>
		<g>
			<g>
				<rect x="73.9" y="21.3" style="fill:#373737;" width="2" height="4.6"/>
			</g>
		</g>
	</g>
</g>
<g>
	<g>
		<g>
			<g>
				<rect x="85.1" y="21.3" style="fill:#373737;" width="2" height="5.5"/>
			</g>
		</g>
	</g>
</g>
<g>
	<g>
		<g>
			<g>
				<rect x="96.9" y="21.3" style="fill:#373737;" width="2" height="4.6"/>
			</g>
		</g>
	</g>
</g>
<g>
	<g>
		<g>
			<g>
				<circle style="fill:#373737;" cx="78.5" cy="62.5" r="1.6"/>
			</g>
		</g>
	</g>
</g>
<g>
	<g>
		<g>
			<g>
				
					<ellipse transform="matrix(4.485277e-02 -0.999 0.999 4.485277e-02 19.0336 144.8907)" style="fill:#373737;" cx="85.3" cy="62.5" rx="1.6" ry="1.6"/>
			</g>
		</g>
	</g>
</g>
<g>
	<g>
		<g>
			<g>
				
					<ellipse transform="matrix(4.485277e-02 -0.999 0.999 4.485277e-02 25.6073 151.7662)" style="fill:#373737;" cx="92.2" cy="62.5" rx="1.6" ry="1.6"/>
			</g>
		</g>
	</g>
</g>
<g>
	<g>
		<g>
			<g>
				
					<ellipse transform="matrix(4.485277e-02 -0.999 0.999 4.485277e-02 32.2477 158.7114)" style="fill:#373737;" cx="99.1" cy="62.5" rx="1.6" ry="1.6"/>
			</g>
		</g>
	</g>
</g>
<g>
	<g>
		<g>
			<g>
				
					<ellipse transform="matrix(4.485277e-02 -0.999 0.999 4.485277e-02 38.7546 165.5171)" style="fill:#373737;" cx="105.9" cy="62.5" rx="1.6" ry="1.6"/>
			</g>
		</g>
	</g>
</g>
<g>
	<g>
		<g>
			<g>
				<circle style="fill:#373737;" cx="78.5" cy="69.6" r="1.6"/>
			</g>
		</g>
	</g>
</g>
<g>
	<g>
		<g>
			<g>
				
					<ellipse transform="matrix(4.485277e-02 -0.999 0.999 4.485277e-02 11.9782 151.6364)" style="fill:#373737;" cx="85.3" cy="69.6" rx="1.6" ry="1.6"/>
			</g>
		</g>
	</g>
</g>
<g>
	<g>
		<g>
			<g>
				
					<ellipse transform="matrix(4.485277e-02 -0.999 0.999 4.485277e-02 18.5519 158.5119)" style="fill:#373737;" cx="92.2" cy="69.6" rx="1.6" ry="1.6"/>
			</g>
		</g>
	</g>
</g>
<g>
	<g>
		<g>
			<g>
				
					<ellipse transform="matrix(4.485277e-02 -0.999 0.999 4.485277e-02 25.1923 165.4571)" style="fill:#373737;" cx="99.1" cy="69.6" rx="1.6" ry="1.6"/>
			</g>
		</g>
	</g>
</g>
<g>
	<g>
		<g>
			<g>
				
					<ellipse transform="matrix(4.485277e-02 -0.999 0.999 4.485277e-02 31.6992 172.2628)" style="fill:#373737;" cx="105.9" cy="69.6" rx="1.6" ry="1.6"/>
			</g>
		</g>
	</g>
</g>
<g>
	<g>
		<g>
			<g>
				<circle style="fill:#373737;" cx="78.5" cy="81.5" r="1.6"/>
			</g>
		</g>
	</g>
</g>
<g>
	<g>
		<g>
			<g>
				
					<ellipse transform="matrix(4.485277e-02 -0.999 0.999 4.485277e-02 5.269536e-02 163.0385)" style="fill:#373737;" cx="85.3" cy="81.5" rx="1.6" ry="1.6"/>
			</g>
		</g>
	</g>
</g>
<g>
	<g>
		<g>
			<g>
				
					<ellipse transform="matrix(4.485277e-02 -0.999 0.999 4.485277e-02 6.6264 169.914)" style="fill:#373737;" cx="92.2" cy="81.5" rx="1.6" ry="1.6"/>
			</g>
		</g>
	</g>
</g>
<g>
	<g>
		<g>
			<g>
				
					<ellipse transform="matrix(4.485277e-02 -0.999 0.999 4.485277e-02 13.2668 176.8592)" style="fill:#373737;" cx="99.1" cy="81.5" rx="1.6" ry="1.6"/>
			</g>
		</g>
	</g>
</g>
<g>
	<g>
		<g>
			<g>
				
					<ellipse transform="matrix(4.485277e-02 -0.999 0.999 4.485277e-02 19.7738 183.6649)" style="fill:#373737;" cx="105.9" cy="81.5" rx="1.6" ry="1.6"/>
			</g>
		</g>
	</g>
</g>
<g>
	<g>
		<g>
			<g>
				<circle style="fill:#373737;" cx="78.5" cy="88.6" r="1.6"/>
			</g>
		</g>
	</g>
</g>
<g>
	<g>
		<g>
			<g>
				
					<ellipse transform="matrix(4.485277e-02 -0.999 0.999 4.485277e-02 -7.0027 169.7842)" style="fill:#373737;" cx="85.3" cy="88.6" rx="1.6" ry="1.6"/>
			</g>
		</g>
	</g>
</g>
<g>
	<g>
		<g>
			<g>
				
					<ellipse transform="matrix(4.485277e-02 -0.999 0.999 4.485277e-02 -0.429 176.6597)" style="fill:#373737;" cx="92.2" cy="88.6" rx="1.6" ry="1.6"/>
			</g>
		</g>
	</g>
</g>
<g>
	<g>
		<g>
			<g>
				
					<ellipse transform="matrix(4.485277e-02 -0.999 0.999 4.485277e-02 6.2114 183.6049)" style="fill:#373737;" cx="99.1" cy="88.6" rx="1.6" ry="1.6"/>
			</g>
		</g>
	</g>
</g>
<g>
	<g>
		<g>
			<g>
				
					<ellipse transform="matrix(4.485277e-02 -0.999 0.999 4.485277e-02 12.7184 190.4106)" style="fill:#373737;" cx="105.9" cy="88.6" rx="1.6" ry="1.6"/>
			</g>
		</g>
	</g>
</g>
<g>
	<g>
		<g>
			<g>
				<rect x="84.8" y="69.6" style="fill:#373737;" width="1" height="12.2"/>
			</g>
		</g>
	</g>
</g>
<g>
	<g>
		<g>
			<g>
				<rect x="91.7" y="69.6" style="fill:#373737;" width="1" height="11.9"/>
			</g>
		</g>
	</g>
</g>
<g>
	<g>
		<g>
			<g>
				<rect x="78.5" y="69.1" style="fill:#373737;" width="6.8" height="1"/>
			</g>
		</g>
	</g>
</g>
<g>
	<g>
		<g>
			<g>
				<rect x="85.3" y="62" style="fill:#373737;" width="7.4" height="1"/>
			</g>
		</g>
	</g>
</g>
<g>
	<g>
		<g>
			<g>
				<rect x="98.6" y="45" style="fill:#373737;" width="1" height="17.5"/>
			</g>
		</g>
	</g>
</g>
<g>
	<g>
		<g>
			<g>
				<rect x="78" y="45" style="fill:#373737;" width="1" height="17.5"/>
			</g>
		</g>
	</g>
</g>
<g>
	<g>
		<g>
			<g>
				<rect x="105.4" y="69.6" style="fill:#373737;" width="1" height="12.2"/>
			</g>
		</g>
	</g>
</g>
<g>
	<g>
		<g>
			<g>
				<rect x="61.4" y="81" style="fill:#373737;" width="17.1" height="1"/>
			</g>
		</g>
	</g>
</g>
<g>
</g>
<g>
</g>
<g>
</g>
<g>
</g>
<g>
</g>
<g>
</g>
<g>
</g>
<g>
</g>
<g>
</g>
<g>
</g>
<g>
</g>
<g>
</g>
<g>
</g>
<g>
</g>
<g>
</g>
</svg>
