<?xml version="1.0" encoding="utf-8"?>
<!-- Generator: Adobe Illustrator 20.1.0, SVG Export Plug-In . SVG Version: 6.00 Build 0)  -->
<svg version="1.1" id="Слой_1" xmlns="http://www.w3.org/2000/svg" xmlns:xlink="http://www.w3.org/1999/xlink" x="0px" y="0px"
	 viewBox="0 0 182.1 151.6" style="enable-background:new 0 0 182.1 151.6;" xml:space="preserve">
<g>
	<path style="fill:#373737;" d="M138.5,127.5H37.9c-3,0-5.5-2.5-5.5-5.5V48H144v74C144,125,141.5,127.5,138.5,127.5z M35.4,51v71
		c0,1.4,1.1,2.5,2.5,2.5h100.6c1.4,0,2.5-1.1,2.5-2.5V51H35.4z"/>
</g>
<g>
	
		<rect x="27.1" y="32.1" transform="matrix(0.7071 -0.7071 0.7071 0.7071 -9.389 44.5224)" style="fill:#373737;" width="43.8" height="3"/>
</g>
<g>
	
		<rect x="125.7" y="11.7" transform="matrix(0.7071 -0.7071 0.7071 0.7071 13.4973 99.7748)" style="fill:#373737;" width="3" height="43.8"/>
</g>
<g>
	<polygon style="fill:#373737;" points="109.7,106.6 58.2,106.6 58.2,69.2 118,69.2 118,97.4 117,97.4 117,70.2 59.2,70.2 
		59.2,105.6 109.7,105.6 	"/>
</g>
<g>
	<rect x="76.6" y="80.6" style="fill:#373737;" width="23.3" height="1"/>
</g>
<g>
	<rect x="69.6" y="87.4" style="fill:#373737;" width="37.4" height="1"/>
</g>
<g>
	<rect x="69.6" y="91.5" style="fill:#373737;" width="37.4" height="1"/>
</g>
<g>
	<rect x="69.6" y="91.5" style="fill:#373737;" width="37.4" height="1"/>
</g>
<g>
	<rect x="69.6" y="95.3" style="fill:#373737;" width="37.4" height="1"/>
</g>
<g>
	
		<rect x="107.3" y="101.1" transform="matrix(0.668 -0.7442 0.7442 0.668 -37.955 118.1725)" style="fill:#373737;" width="12.4" height="1"/>
</g>
<g>
	<rect x="108.4" y="96.7" style="fill:#373737;" width="1" height="9.7"/>
</g>
<g>
	<rect x="108.4" y="96.2" style="fill:#373737;" width="9.1" height="1"/>
</g>
<g>
	<rect x="81.2" y="49.5" style="fill:#373737;" width="1" height="12"/>
</g>
<g>
	<rect x="93.1" y="49.5" style="fill:#373737;" width="1" height="8.3"/>
</g>
<g>
	
		<rect x="80.9" y="58.6" transform="matrix(0.7042 -0.71 0.71 0.7042 -17.2193 76.9331)" style="fill:#373737;" width="5.6" height="1"/>
</g>
<g>
	
		<rect x="86.9" y="56.1" transform="matrix(0.6657 -0.7462 0.7462 0.6657 -15.0472 85.0627)" style="fill:#373737;" width="1" height="6.4"/>
</g>
<g>
	
		<rect x="88.4" y="59" transform="matrix(0.7325 -0.6808 0.6808 0.7325 -16.015 78.1441)" style="fill:#373737;" width="6.1" height="1"/>
</g>
<g>
	<rect x="123.2" y="117.6" style="fill:#373737;" width="3" height="1"/>
</g>
<g>
	<rect x="124.1" y="115.6" style="fill:#373737;" width="1" height="3"/>
</g>
<g>
	<rect x="123.7" y="112.6" style="fill:#373737;" width="2.1" height="1"/>
</g>
<g>
	<rect x="123.1" y="112.6" style="fill:#373737;" width="1" height="3"/>
</g>
<g>
	<rect x="125.2" y="112.6" style="fill:#373737;" width="1" height="3"/>
</g>
<g>
	<rect x="129.1" y="112.6" style="fill:#373737;" width="1" height="4"/>
</g>
<g>
	<rect x="131.2" y="112.6" style="fill:#373737;" width="1" height="4"/>
</g>
<g>
	<rect x="128.2" y="113.6" style="fill:#373737;" width="4.9" height="1"/>
</g>
<g>
	<rect x="128.2" y="117.6" style="fill:#373737;" width="4.9" height="1"/>
</g>
<g>
</g>
<g>
</g>
<g>
</g>
<g>
</g>
<g>
</g>
<g>
</g>
<g>
</g>
<g>
</g>
<g>
</g>
<g>
</g>
<g>
</g>
<g>
</g>
<g>
</g>
<g>
</g>
<g>
</g>
</svg>
