<svg xmlns="http://www.w3.org/2000/svg" viewBox="0 0 102.1 110.3"><path d="M52.7 85.9C46.3 85.9 41 82.4 41 78h1c0 3.8 4.8 6.9 10.7 6.9s10.7-3.1 10.7-6.9h1c0 4.4-5.2 7.9-11.7 7.9zM80.2 40.9H51.1c-2.2 0-4-1.8-4-4V4.3c0-2.2 1.8-4 4-4h29.1c2.2 0 4 1.8 4 4v32.6c0 2.2-1.8 4-4 4zM51.1 3.3c-.6 0-1 .4-1 1v32.6c0 .6.4 1 1 1h29.1c.6 0 1-.4 1-1V4.3c0-.6-.4-1-1-1H51.1z" fill="#373737"/><path d="M74.1 61.6H56.4c-1.9 0-3.5-1.6-3.5-3.5V38.4h24.8v19.7c-.1 1.9-1.6 3.5-3.6 3.5zM54.9 40.4v17.7c0 .8.7 1.5 1.5 1.5h17.8c.8 0 1.5-.7 1.5-1.5V40.4H54.9z" fill="#373737"/><path fill="#373737" d="M102.1 110.3H-.4V50.5h54.3v3H2.6v53.8h96.5V53.5h-22v-3h25"/><path d="M71.5 68.1H58.9v-8.5h12.6v8.5zm-10.6-2h8.6v-4.5h-8.6v4.5zM1.1 103h99.5v1H1.1zM1.1 98.9h99.5v1H1.1zM76.6 56.5h23.9v1H76.6zM1.1 56.5h52.6v1H1.1zM76.6 54.8h23.9v1H76.6zM1.1 54.8h52.8v1H1.1zM1.1 74.8H41v1H1.1zM1.1 77.1H41v1H1.1z" fill="#373737"/><path fill="#373737" d="M1.1 77.1H41v1H1.1zM1.1 79.5h40.7v1H1.1zM52.7 83.9C46.3 83.9 41 80.4 41 76h1c0 3.8 4.8 6.9 10.7 6.9s10.7-3.1 10.7-6.9h1c0 4.4-5.2 7.9-11.7 7.9z"/><path d="M52.7 81.9C46.3 81.9 41 78.4 41 74s5.3-7.9 11.7-7.9 11.7 3.6 11.7 7.9-5.2 7.9-11.7 7.9zm0-14.8C46.8 67.1 42 70.2 42 74s4.8 6.9 10.7 6.9 10.7-3.1 10.7-6.9-4.8-6.9-10.7-6.9zM68.37259 75.23082l4.12281-3.93642 1.3812 1.4466-4.12281 3.93642zM68.82347 81.12513l1.2908-1.5278 3.59033 3.03338-1.2908 1.5278z" fill="#373737"/><path fill="#373737" d="M64.2 67.5h2V78h-2zM0 20.3h47.5v3H0zM0 7.3h47.5v3H0zM82.7 7.3H102v3H82.7zM82.7 20.1H102v3H82.7zM70.9 8.2h1v5h-1zM73 8.2h1v5h-1zM75 8.2h1v5h-1z"/><circle cx="55.7" cy="32.8" r="1.4" fill="#373737"/><circle cx="61.6" cy="32.8" r="1.4" fill="#373737"/><path fill="#373737" d="M41 74h1v4.2h-1zM63.5 74.8h1v3.4h-1z"/></svg>