<?xml version="1.0" encoding="utf-8"?>
<!-- Generator: Adobe Illustrator 20.1.0, SVG Export Plug-In . SVG Version: 6.00 Build 0)  -->
<svg version="1.1" id="Слой_1" xmlns="http://www.w3.org/2000/svg" xmlns:xlink="http://www.w3.org/1999/xlink" x="0px" y="0px"
	 viewBox="0 0 182.1 151.6" style="enable-background:new 0 0 182.1 151.6;" xml:space="preserve">
<g>
	<ellipse style="fill:#F9F9F9;" cx="84.5" cy="96" rx="11.2" ry="7.4"/>
	<path style="fill:#373737;" d="M84.5,103.9c-6.5,0-11.7-3.6-11.7-7.9S78,88,84.5,88s11.7,3.6,11.7,7.9S90.9,103.9,84.5,103.9z
		 M84.5,89c-5.9,0-10.7,3.1-10.7,6.9s4.8,6.9,10.7,6.9s10.7-3.1,10.7-6.9S90.4,89,84.5,89z"/>
</g>
<g>
	<path style="fill:#373737;" d="M111.9,58.8H82.8c-2.2,0-4-1.8-4-4V22.2c0-2.2,1.8-4,4-4h29.1c2.2,0,4,1.8,4,4v32.6
		C115.9,57,114.1,58.8,111.9,58.8z M82.8,21.2c-0.6,0-1,0.4-1,1v32.6c0,0.6,0.4,1,1,1h29.1c0.6,0,1-0.4,1-1V22.2c0-0.6-0.4-1-1-1
		H82.8z"/>
</g>
<g>
	<path style="fill:#373737;" d="M105.9,79.5H88.1c-1.9,0-3.5-1.6-3.5-3.5V56.3h24.8V76C109.4,78,107.8,79.5,105.9,79.5z M86.6,58.3
		V76c0,0.8,0.7,1.5,1.5,1.5h17.8c0.8,0,1.5-0.7,1.5-1.5V58.3H86.6z"/>
</g>
<g>
	<polygon style="fill:#373737;" points="133.8,128.2 31.3,128.2 31.3,68.5 85.6,68.5 85.6,71.5 34.3,71.5 34.3,125.2 130.8,125.2 
		130.8,71.5 108.9,71.5 108.9,68.5 133.8,68.5 	"/>
</g>
<g>
	<path style="fill:#373737;" d="M103.2,86.1H90.6v-8.5h12.6V86.1z M92.6,84.1h8.6v-4.5h-8.6V84.1z"/>
</g>
<g>
	<rect x="32.8" y="121" style="fill:#373737;" width="99.5" height="1"/>
</g>
<g>
	<rect x="32.8" y="116.8" style="fill:#373737;" width="99.5" height="1"/>
</g>
<g>
	<rect x="108.4" y="74.5" style="fill:#373737;" width="23.9" height="1"/>
</g>
<g>
	<rect x="32.8" y="74.5" style="fill:#373737;" width="52.6" height="1"/>
</g>
<g>
	<rect x="108.4" y="72.7" style="fill:#373737;" width="23.9" height="1"/>
</g>
<g>
	<rect x="32.8" y="72.7" style="fill:#373737;" width="52.8" height="1"/>
</g>
<g>
	<rect x="32.8" y="92.7" style="fill:#373737;" width="39.9" height="1"/>
</g>
<g>
	<rect x="32.8" y="95.1" style="fill:#373737;" width="39.9" height="1"/>
</g>
<g>
	<rect x="32.8" y="95.1" style="fill:#373737;" width="39.9" height="1"/>
</g>
<g>
	<rect x="32.8" y="97.5" style="fill:#373737;" width="40.7" height="1"/>
</g>
<g>
	<ellipse style="fill:#F9F9F9;" cx="84.5" cy="94" rx="11.2" ry="7.4"/>
	<path style="fill:#373737;" d="M84.5,101.9c-6.5,0-11.7-3.6-11.7-7.9S78,86,84.5,86s11.7,3.6,11.7,7.9S90.9,101.9,84.5,101.9z
		 M84.5,87c-5.9,0-10.7,3.1-10.7,6.9s4.8,6.9,10.7,6.9s10.7-3.1,10.7-6.9S90.4,87,84.5,87z"/>
</g>
<g>
	<ellipse style="fill:#F9F9F9;" cx="84.5" cy="92" rx="11.2" ry="7.4"/>
	<path style="fill:#373737;" d="M84.5,99.9c-6.5,0-11.7-3.6-11.7-7.9S78,84,84.5,84s11.7,3.6,11.7,7.9S90.9,99.9,84.5,99.9z
		 M84.5,85c-5.9,0-10.7,3.1-10.7,6.9s4.8,6.9,10.7,6.9s10.7-3.1,10.7-6.9S90.4,85,84.5,85z"/>
</g>
<g>
	
		<rect x="100" y="91" transform="matrix(0.7233 -0.6906 0.6906 0.7233 -35.0642 96.4888)" style="fill:#373737;" width="5.7" height="2"/>
</g>
<g>
	
		<rect x="102" y="97.5" transform="matrix(0.6454 -0.7639 0.7639 0.6454 -39.7436 114.1365)" style="fill:#373737;" width="2" height="4.7"/>
</g>
<g>
	<rect x="95.9" y="85.5" style="fill:#373737;" width="2" height="10.5"/>
</g>
<g>
	<rect x="31.7" y="38.2" style="fill:#373737;" width="47.5" height="3"/>
</g>
<g>
	<rect x="31.7" y="25.2" style="fill:#373737;" width="47.5" height="3"/>
</g>
<g>
	<rect x="114.4" y="25.2" style="fill:#373737;" width="19.3" height="3"/>
</g>
<g>
	<rect x="114.4" y="38.1" style="fill:#373737;" width="19.3" height="3"/>
</g>
<g>
	<rect x="102.7" y="26.2" style="fill:#373737;" width="1" height="5"/>
</g>
<g>
	<rect x="104.7" y="26.2" style="fill:#373737;" width="1" height="5"/>
</g>
<g>
	<rect x="106.7" y="26.2" style="fill:#373737;" width="1" height="5"/>
</g>
<g>
	<circle style="fill:#373737;" cx="87.4" cy="50.7" r="1.4"/>
</g>
<g>
	<circle style="fill:#373737;" cx="93.3" cy="50.7" r="1.4"/>
</g>
<g>
</g>
<g>
</g>
<g>
</g>
<g>
</g>
<g>
</g>
<g>
</g>
<g>
</g>
<g>
</g>
<g>
</g>
<g>
</g>
<g>
</g>
<g>
</g>
<g>
</g>
<g>
</g>
<g>
</g>
</svg>
