<svg xmlns="http://www.w3.org/2000/svg" viewBox="0 0 300 300"><path d="M150.1 107.5c-23.7 0-42.9 19.2-42.9 42.9s19.2 42.9 42.9 42.9 42.9-19.2 42.9-42.9-19.2-42.9-42.9-42.9zm-21.8 75.6l3.6-17.6c.6-4.2 4.1-7.4 8.3-7.7 2.8 2.2 6.2 3.5 9.9 3.5s7.1-1.4 9.9-3.5c4.3.1 8 3.4 8.6 7.9l3.5 17.3c-6.3 4.3-13.9 6.8-22.1 6.8-8-.1-15.5-2.5-21.7-6.7zm21.8-25.6c-7.3 0-14.3-8-14.3-16.1 0-7.7 6.6-14.3 14.3-14.3s14.3 6.6 14.3 14.3c0 8.1-7 16.1-14.3 16.1zm25.2 23l-3.2-15.5c-.7-5-4.3-9-9-10.4 2.8-3.4 4.8-8.7 4.8-13.2 0-9.7-8.2-17.9-17.9-17.9s-17.9 8.2-17.9 17.9c0 4.5 2.1 9.8 4.9 13.3-4.6 1.4-8.1 5.4-8.7 10.2l-3.2 15.9c-8.8-7.2-14.4-18.2-14.4-30.4 0-21.7 17.6-39.3 39.3-39.3 21.7 0 39.3 17.6 39.3 39.3.1 12.1-5.4 22.9-14 30.1z" fill="#1a1a1a"/></svg>